<svg width="160" height="60" viewBox="0 0 160 60" fill="none" xmlns="http://www.w3.org/2000/svg">
<g filter="url(#filter0_d_329_808)">
<rect x="5" y="1" width="150" height="50" rx="10" fill="#0D1117" fill-opacity="0.24" shape-rendering="crispEdges"/>
<rect x="5" y="1" width="150" height="50" rx="10" fill="url(#paint0_linear_329_808)" shape-rendering="crispEdges"/>
<rect x="4.5" y="0.5" width="151" height="51" rx="10.5" stroke="white" stroke-opacity="0.33" shape-rendering="crispEdges"/>
<rect x="25" y="11" width="30" height="30" rx="15" fill="#253040"/>
<path d="M34.1633 21.8537L38.6198 25.2191L38.6213 25.2203C39.1161 25.5832 39.3637 25.7647 39.6348 25.8349C39.8745 25.8969 40.1264 25.8969 40.3661 25.8349C40.6375 25.7647 40.8858 25.5826 41.3815 25.2191C41.3815 25.2191 44.24 23.0255 45.8379 21.8537M33.4336 29.0045V23.4591C33.4336 22.6418 33.4336 22.2328 33.5927 21.9207C33.7326 21.6461 33.9556 21.423 34.2302 21.2831C34.5424 21.124 34.9514 21.124 35.7687 21.124H44.2327C45.05 21.124 45.4581 21.124 45.7703 21.2831C46.0449 21.423 46.2687 21.6461 46.4086 21.9207C46.5675 22.2325 46.5675 22.641 46.5675 23.4567V29.007C46.5675 29.8227 46.5675 30.2306 46.4086 30.5424C46.2687 30.817 46.0449 31.0405 45.7703 31.1804C45.4584 31.3393 45.0506 31.3393 44.2349 31.3393H35.7663C34.9506 31.3393 34.5421 31.3393 34.2302 31.1804C33.9556 31.0405 33.7326 30.817 33.5927 30.5424C33.4336 30.2303 33.4336 29.8218 33.4336 29.0045Z" stroke="white" stroke-width="2" stroke-linecap="round" stroke-linejoin="round"/>
<g filter="url(#filter1_d_329_808)">
<mask id="path-5-outside-1_329_808" maskUnits="userSpaceOnUse" x="66" y="15.5" width="68" height="20" fill="black">
<rect fill="white" x="66" y="15.5" width="68" height="20"/>
<path d="M67.3576 34.5V17.7H79.6216V20.316H70.4776V31.884H79.9576V34.5H67.3576ZM70.2376 27.252V24.684H78.5896V27.252H70.2376ZM83.1477 34.5V21.684H86.0037V25.092L85.4997 24.084C85.9317 23.252 86.5557 22.62 87.3717 22.188C88.2037 21.756 89.1477 21.54 90.2037 21.54C91.4037 21.54 92.4437 21.836 93.3237 22.428C94.2197 23.02 94.8117 23.916 95.0997 25.116L93.9237 24.708C94.3397 23.748 95.0277 22.98 95.9877 22.404C96.9477 21.828 98.0597 21.54 99.3237 21.54C100.348 21.54 101.252 21.74 102.036 22.14C102.836 22.54 103.46 23.156 103.908 23.988C104.356 24.804 104.58 25.86 104.58 27.156V34.5H101.58V27.54C101.58 26.404 101.332 25.556 100.836 24.996C100.34 24.436 99.6277 24.156 98.6997 24.156C98.0437 24.156 97.4597 24.3 96.9477 24.588C96.4517 24.876 96.0597 25.3 95.7717 25.86C95.4997 26.42 95.3637 27.132 95.3637 27.996V34.5H92.3637V27.54C92.3637 26.404 92.1157 25.556 91.6197 24.996C91.1237 24.436 90.4117 24.156 89.4837 24.156C88.8277 24.156 88.2437 24.3 87.7317 24.588C87.2357 24.876 86.8437 25.3 86.5557 25.86C86.2837 26.42 86.1477 27.132 86.1477 27.996V34.5H83.1477ZM116.309 34.5V31.908L116.141 31.356V26.82C116.141 25.94 115.877 25.26 115.349 24.78C114.821 24.284 114.021 24.036 112.949 24.036C112.229 24.036 111.517 24.148 110.813 24.372C110.125 24.596 109.541 24.908 109.061 25.308L107.885 23.124C108.573 22.596 109.389 22.204 110.333 21.948C111.293 21.676 112.285 21.54 113.309 21.54C115.165 21.54 116.597 21.988 117.605 22.884C118.629 23.764 119.141 25.132 119.141 26.988V34.5H116.309ZM112.277 34.668C111.317 34.668 110.477 34.508 109.757 34.188C109.037 33.852 108.477 33.396 108.077 32.82C107.693 32.228 107.501 31.564 107.501 30.828C107.501 30.108 107.669 29.46 108.005 28.884C108.357 28.308 108.925 27.852 109.709 27.516C110.493 27.18 111.533 27.012 112.829 27.012H116.549V29.004H113.045C112.021 29.004 111.333 29.172 110.981 29.508C110.629 29.828 110.453 30.228 110.453 30.708C110.453 31.252 110.669 31.684 111.101 32.004C111.533 32.324 112.133 32.484 112.901 32.484C113.637 32.484 114.293 32.316 114.869 31.98C115.461 31.644 115.885 31.148 116.141 30.492L116.645 32.292C116.357 33.044 115.837 33.628 115.085 34.044C114.349 34.46 113.413 34.668 112.277 34.668ZM122.991 34.5V21.684H125.991V34.5H122.991ZM124.503 19.572C123.943 19.572 123.479 19.396 123.111 19.044C122.759 18.692 122.583 18.268 122.583 17.772C122.583 17.26 122.759 16.836 123.111 16.5C123.479 16.148 123.943 15.972 124.503 15.972C125.063 15.972 125.519 16.14 125.871 16.476C126.239 16.796 126.423 17.204 126.423 17.7C126.423 18.228 126.247 18.676 125.895 19.044C125.543 19.396 125.079 19.572 124.503 19.572ZM129.929 34.5V16.692H132.929V34.5H129.929Z"/>
</mask>
<path d="M67.3576 34.5V17.7H79.6216V20.316H70.4776V31.884H79.9576V34.5H67.3576ZM70.2376 27.252V24.684H78.5896V27.252H70.2376ZM83.1477 34.5V21.684H86.0037V25.092L85.4997 24.084C85.9317 23.252 86.5557 22.62 87.3717 22.188C88.2037 21.756 89.1477 21.54 90.2037 21.54C91.4037 21.54 92.4437 21.836 93.3237 22.428C94.2197 23.02 94.8117 23.916 95.0997 25.116L93.9237 24.708C94.3397 23.748 95.0277 22.98 95.9877 22.404C96.9477 21.828 98.0597 21.54 99.3237 21.54C100.348 21.54 101.252 21.74 102.036 22.14C102.836 22.54 103.46 23.156 103.908 23.988C104.356 24.804 104.58 25.86 104.58 27.156V34.5H101.58V27.54C101.58 26.404 101.332 25.556 100.836 24.996C100.34 24.436 99.6277 24.156 98.6997 24.156C98.0437 24.156 97.4597 24.3 96.9477 24.588C96.4517 24.876 96.0597 25.3 95.7717 25.86C95.4997 26.42 95.3637 27.132 95.3637 27.996V34.5H92.3637V27.54C92.3637 26.404 92.1157 25.556 91.6197 24.996C91.1237 24.436 90.4117 24.156 89.4837 24.156C88.8277 24.156 88.2437 24.3 87.7317 24.588C87.2357 24.876 86.8437 25.3 86.5557 25.86C86.2837 26.42 86.1477 27.132 86.1477 27.996V34.5H83.1477ZM116.309 34.5V31.908L116.141 31.356V26.82C116.141 25.94 115.877 25.26 115.349 24.78C114.821 24.284 114.021 24.036 112.949 24.036C112.229 24.036 111.517 24.148 110.813 24.372C110.125 24.596 109.541 24.908 109.061 25.308L107.885 23.124C108.573 22.596 109.389 22.204 110.333 21.948C111.293 21.676 112.285 21.54 113.309 21.54C115.165 21.54 116.597 21.988 117.605 22.884C118.629 23.764 119.141 25.132 119.141 26.988V34.5H116.309ZM112.277 34.668C111.317 34.668 110.477 34.508 109.757 34.188C109.037 33.852 108.477 33.396 108.077 32.82C107.693 32.228 107.501 31.564 107.501 30.828C107.501 30.108 107.669 29.46 108.005 28.884C108.357 28.308 108.925 27.852 109.709 27.516C110.493 27.18 111.533 27.012 112.829 27.012H116.549V29.004H113.045C112.021 29.004 111.333 29.172 110.981 29.508C110.629 29.828 110.453 30.228 110.453 30.708C110.453 31.252 110.669 31.684 111.101 32.004C111.533 32.324 112.133 32.484 112.901 32.484C113.637 32.484 114.293 32.316 114.869 31.98C115.461 31.644 115.885 31.148 116.141 30.492L116.645 32.292C116.357 33.044 115.837 33.628 115.085 34.044C114.349 34.46 113.413 34.668 112.277 34.668ZM122.991 34.5V21.684H125.991V34.5H122.991ZM124.503 19.572C123.943 19.572 123.479 19.396 123.111 19.044C122.759 18.692 122.583 18.268 122.583 17.772C122.583 17.26 122.759 16.836 123.111 16.5C123.479 16.148 123.943 15.972 124.503 15.972C125.063 15.972 125.519 16.14 125.871 16.476C126.239 16.796 126.423 17.204 126.423 17.7C126.423 18.228 126.247 18.676 125.895 19.044C125.543 19.396 125.079 19.572 124.503 19.572ZM129.929 34.5V16.692H132.929V34.5H129.929Z" fill="url(#paint1_linear_329_808)"/>
<path d="M67.3576 34.5H66.9576V34.9H67.3576V34.5ZM67.3576 17.7V17.3H66.9576V17.7H67.3576ZM79.6216 17.7H80.0216V17.3H79.6216V17.7ZM79.6216 20.316V20.716H80.0216V20.316H79.6216ZM70.4776 20.316V19.916H70.0776V20.316H70.4776ZM70.4776 31.884H70.0776V32.284H70.4776V31.884ZM79.9576 31.884H80.3576V31.484H79.9576V31.884ZM79.9576 34.5V34.9H80.3576V34.5H79.9576ZM70.2376 27.252H69.8376V27.652H70.2376V27.252ZM70.2376 24.684V24.284H69.8376V24.684H70.2376ZM78.5896 24.684H78.9896V24.284H78.5896V24.684ZM78.5896 27.252V27.652H78.9896V27.252H78.5896ZM67.3576 34.5H67.7576V17.7H67.3576H66.9576V34.5H67.3576ZM67.3576 17.7V18.1H79.6216V17.7V17.3H67.3576V17.7ZM79.6216 17.7H79.2216V20.316H79.6216H80.0216V17.7H79.6216ZM79.6216 20.316V19.916H70.4776V20.316V20.716H79.6216V20.316ZM70.4776 20.316H70.0776V31.884H70.4776H70.8776V20.316H70.4776ZM70.4776 31.884V32.284H79.9576V31.884V31.484H70.4776V31.884ZM79.9576 31.884H79.5576V34.5H79.9576H80.3576V31.884H79.9576ZM79.9576 34.5V34.1H67.3576V34.5V34.9H79.9576V34.5ZM70.2376 27.252H70.6376V24.684H70.2376H69.8376V27.252H70.2376ZM70.2376 24.684V25.084H78.5896V24.684V24.284H70.2376V24.684ZM78.5896 24.684H78.1896V27.252H78.5896H78.9896V24.684H78.5896ZM78.5896 27.252V26.852H70.2376V27.252V27.652H78.5896V27.252ZM83.1477 34.5H82.7477V34.9H83.1477V34.5ZM83.1477 21.684V21.284H82.7477V21.684H83.1477ZM86.0037 21.684H86.4037V21.284H86.0037V21.684ZM86.0037 25.092L85.6459 25.2709L86.4037 25.092H86.0037ZM85.4997 24.084L85.1447 23.8997L85.0508 24.0806L85.1419 24.2629L85.4997 24.084ZM87.3717 22.188L87.1874 21.833L87.1845 21.8345L87.3717 22.188ZM93.3237 22.428L93.1004 22.7599L93.1032 22.7617L93.3237 22.428ZM95.0997 25.116L94.9686 25.4939L95.6593 25.7335L95.4886 25.0226L95.0997 25.116ZM93.9237 24.708L93.5567 24.549L93.3852 24.9446L93.7926 25.0859L93.9237 24.708ZM95.9877 22.404L96.1935 22.747V22.747L95.9877 22.404ZM102.036 22.14L101.854 22.4963L101.857 22.4978L102.036 22.14ZM103.908 23.988L103.555 24.1776L103.557 24.1805L103.908 23.988ZM104.58 34.5V34.9H104.98V34.5H104.58ZM101.58 34.5H101.18V34.9H101.58V34.5ZM100.836 24.996L101.135 24.7308V24.7308L100.836 24.996ZM96.9477 24.588L96.7516 24.2393L96.7468 24.2421L96.9477 24.588ZM95.7717 25.86L95.4159 25.677L95.4119 25.6852L95.7717 25.86ZM95.3637 34.5V34.9H95.7637V34.5H95.3637ZM92.3637 34.5H91.9637V34.9H92.3637V34.5ZM91.6197 24.996L91.9191 24.7308V24.7308L91.6197 24.996ZM87.7317 24.588L87.5356 24.2393L87.5308 24.2421L87.7317 24.588ZM86.5557 25.86L86.1999 25.677L86.1959 25.6852L86.5557 25.86ZM86.1477 34.5V34.9H86.5477V34.5H86.1477ZM83.1477 34.5H83.5477V21.684H83.1477H82.7477V34.5H83.1477ZM83.1477 21.684V22.084H86.0037V21.684V21.284H83.1477V21.684ZM86.0037 21.684H85.6037V25.092H86.0037H86.4037V21.684H86.0037ZM86.0037 25.092L86.3615 24.9131L85.8575 23.9051L85.4997 24.084L85.1419 24.2629L85.6459 25.2709L86.0037 25.092ZM85.4997 24.084L85.8547 24.2683C86.2498 23.5073 86.8159 22.9349 87.5588 22.5415L87.3717 22.188L87.1845 21.8345C86.2955 22.3051 85.6135 22.9967 85.1447 23.8997L85.4997 24.084ZM87.3717 22.188L87.556 22.543C88.3242 22.1441 89.2036 21.94 90.2037 21.94V21.54V21.14C89.0917 21.14 88.0832 21.3679 87.1874 21.833L87.3717 22.188ZM90.2037 21.54V21.94C91.335 21.94 92.2948 22.218 93.1004 22.7599L93.3237 22.428L93.547 22.0961C92.5925 21.454 91.4724 21.14 90.2037 21.14V21.54ZM93.3237 22.428L93.1032 22.7617C93.902 23.2895 94.4426 24.0921 94.7107 25.2093L95.0997 25.116L95.4886 25.0226C95.1808 23.7399 94.5374 22.7505 93.5442 22.0943L93.3237 22.428ZM95.0997 25.116L95.2308 24.7381L94.0548 24.3301L93.9237 24.708L93.7926 25.0859L94.9686 25.4939L95.0997 25.116ZM93.9237 24.708L94.2907 24.867C94.6711 23.9892 95.2998 23.2832 96.1935 22.747L95.9877 22.404L95.7819 22.061C94.7556 22.6768 94.0083 23.5068 93.5567 24.549L93.9237 24.708ZM95.9877 22.404L96.1935 22.747C97.0836 22.2129 98.1226 21.94 99.3237 21.94V21.54V21.14C97.9968 21.14 96.8118 21.4431 95.7819 22.061L95.9877 22.404ZM99.3237 21.54V21.94C100.295 21.94 101.135 22.1294 101.854 22.4963L102.036 22.14L102.217 21.7837C101.369 21.3506 100.401 21.14 99.3237 21.14V21.54ZM102.036 22.14L101.857 22.4978C102.579 22.8588 103.144 23.4139 103.556 24.1776L103.908 23.988L104.26 23.7984C103.775 22.8981 103.093 22.2212 102.215 21.7822L102.036 22.14ZM103.908 23.988L103.557 24.1805C103.962 24.9189 104.18 25.9023 104.18 27.156H104.58H104.98C104.98 25.8177 104.749 24.6891 104.258 23.7955L103.908 23.988ZM104.58 27.156H104.18V34.5H104.58H104.98V27.156H104.58ZM104.58 34.5V34.1H101.58V34.5V34.9H104.58V34.5ZM101.58 34.5H101.98V27.54H101.58H101.18V34.5H101.58ZM101.58 27.54H101.98C101.98 26.3552 101.722 25.3938 101.135 24.7308L100.836 24.996L100.536 25.2612C100.941 25.7182 101.18 26.4528 101.18 27.54H101.58ZM100.836 24.996L101.135 24.7308C100.545 24.0651 99.7124 23.756 98.6997 23.756V24.156V24.556C99.5429 24.556 100.134 24.8069 100.536 25.2612L100.836 24.996ZM98.6997 24.156V23.756C97.9832 23.756 97.3302 23.9139 96.7516 24.2394L96.9477 24.588L97.1438 24.9366C97.5892 24.6861 98.1042 24.556 98.6997 24.556V24.156ZM96.9477 24.588L96.7468 24.2421C96.1783 24.5722 95.7354 25.056 95.416 25.6771L95.7717 25.86L96.1274 26.0429C96.384 25.544 96.7251 25.1798 97.1485 24.9339L96.9477 24.588ZM95.7717 25.86L95.4119 25.6852C95.1052 26.3166 94.9637 27.0935 94.9637 27.996H95.3637H95.7637C95.7637 27.1705 95.8941 26.5234 96.1315 26.0348L95.7717 25.86ZM95.3637 27.996H94.9637V34.5H95.3637H95.7637V27.996H95.3637ZM95.3637 34.5V34.1H92.3637V34.5V34.9H95.3637V34.5ZM92.3637 34.5H92.7637V27.54H92.3637H91.9637V34.5H92.3637ZM92.3637 27.54H92.7637C92.7637 26.3552 92.5063 25.3938 91.9191 24.7308L91.6197 24.996L91.3203 25.2612C91.725 25.7182 91.9637 26.4528 91.9637 27.54H92.3637ZM91.6197 24.996L91.9191 24.7308C91.3295 24.0651 90.4964 23.756 89.4837 23.756V24.156V24.556C90.3269 24.556 90.9179 24.8069 91.3203 25.2612L91.6197 24.996ZM89.4837 24.156V23.756C88.7672 23.756 88.1142 23.9139 87.5356 24.2394L87.7317 24.588L87.9278 24.9366C88.3732 24.6861 88.8882 24.556 89.4837 24.556V24.156ZM87.7317 24.588L87.5308 24.2421C86.9623 24.5722 86.5194 25.056 86.2 25.6771L86.5557 25.86L86.9114 26.0429C87.168 25.544 87.5091 25.1798 87.9325 24.9339L87.7317 24.588ZM86.5557 25.86L86.1959 25.6852C85.8892 26.3166 85.7477 27.0935 85.7477 27.996H86.1477H86.5477C86.5477 27.1705 86.6781 26.5234 86.9155 26.0348L86.5557 25.86ZM86.1477 27.996H85.7477V34.5H86.1477H86.5477V27.996H86.1477ZM86.1477 34.5V34.1H83.1477V34.5V34.9H86.1477V34.5ZM116.309 34.5H115.909V34.9H116.309V34.5ZM116.309 31.908H116.709V31.8485L116.692 31.7915L116.309 31.908ZM116.141 31.356H115.741V31.4155L115.759 31.4725L116.141 31.356ZM115.349 24.78L115.075 25.0716L115.08 25.076L115.349 24.78ZM110.813 24.372L110.692 23.9908L110.689 23.9917L110.813 24.372ZM109.061 25.308L108.709 25.4976L108.941 25.9287L109.317 25.6153L109.061 25.308ZM107.885 23.124L107.642 22.8067L107.372 23.0139L107.533 23.3136L107.885 23.124ZM110.333 21.948L110.438 22.3341L110.442 22.3329L110.333 21.948ZM117.605 22.884L117.34 23.183L117.345 23.1874L117.605 22.884ZM119.141 34.5V34.9H119.541V34.5H119.141ZM109.757 34.188L109.588 34.5505L109.595 34.5535L109.757 34.188ZM108.077 32.82L107.742 33.0378L107.749 33.0482L108.077 32.82ZM108.005 28.884L107.664 28.6754L107.66 28.6825L108.005 28.884ZM109.709 27.516L109.867 27.8837V27.8837L109.709 27.516ZM116.549 27.012H116.949V26.612H116.549V27.012ZM116.549 29.004V29.404H116.949V29.004H116.549ZM110.981 29.508L111.25 29.8041L111.258 29.7973L110.981 29.508ZM111.101 32.004L110.863 32.3254V32.3254L111.101 32.004ZM114.869 31.98L114.672 31.6321L114.668 31.6345L114.869 31.98ZM116.141 30.492L116.526 30.3841L116.204 29.2316L115.769 30.3466L116.141 30.492ZM116.645 32.292L117.019 32.4351L117.066 32.3115L117.03 32.1841L116.645 32.292ZM115.085 34.044L114.892 33.694L114.888 33.6958L115.085 34.044ZM116.309 34.5H116.709V31.908H116.309H115.909V34.5H116.309ZM116.309 31.908L116.692 31.7915L116.524 31.2395L116.141 31.356L115.759 31.4725L115.927 32.0245L116.309 31.908ZM116.141 31.356H116.541V26.82H116.141H115.741V31.356H116.141ZM116.141 26.82H116.541C116.541 25.8556 116.249 25.057 115.618 24.484L115.349 24.78L115.08 25.076C115.506 25.463 115.741 26.0244 115.741 26.82H116.141ZM115.349 24.78L115.623 24.4885C114.992 23.8957 114.075 23.636 112.949 23.636V24.036V24.436C113.968 24.436 114.65 24.6723 115.075 25.0715L115.349 24.78ZM112.949 24.036V23.636C112.187 23.636 111.434 23.7547 110.692 23.9908L110.813 24.372L110.935 24.7532C111.6 24.5413 112.272 24.436 112.949 24.436V24.036ZM110.813 24.372L110.689 23.9917C109.961 24.2289 109.33 24.5635 108.805 25.0007L109.061 25.308L109.317 25.6153C109.753 25.2525 110.29 24.9631 110.937 24.7523L110.813 24.372ZM109.061 25.308L109.414 25.1184L108.237 22.9344L107.885 23.124L107.533 23.3136L108.709 25.4976L109.061 25.308ZM107.885 23.124L108.129 23.4413C108.771 22.9489 109.538 22.5781 110.438 22.3341L110.333 21.948L110.229 21.5619C109.241 21.8299 108.376 22.2431 107.642 22.8067L107.885 23.124ZM110.333 21.948L110.442 22.3329C111.366 22.0712 112.321 21.94 113.309 21.94V21.54V21.14C112.249 21.14 111.221 21.2808 110.224 21.5631L110.333 21.948ZM113.309 21.54V21.94C115.104 21.94 116.428 22.373 117.34 23.183L117.605 22.884L117.871 22.585C116.766 21.603 115.226 21.14 113.309 21.14V21.54ZM117.605 22.884L117.345 23.1874C118.251 23.9659 118.741 25.2028 118.741 26.988H119.141H119.541C119.541 25.0612 119.008 23.5621 117.866 22.5806L117.605 22.884ZM119.141 26.988H118.741V34.5H119.141H119.541V26.988H119.141ZM119.141 34.5V34.1H116.309V34.5V34.9H119.141V34.5ZM112.277 34.668V34.268C111.361 34.268 110.579 34.1153 109.92 33.8225L109.757 34.188L109.595 34.5535C110.376 34.9007 111.273 35.068 112.277 35.068V34.668ZM109.757 34.188L109.926 33.8255C109.262 33.5154 108.76 33.1024 108.406 32.5918L108.077 32.82L107.749 33.0482C108.194 33.6896 108.813 34.1886 109.588 34.5505L109.757 34.188ZM108.077 32.82L108.413 32.6023C108.073 32.078 107.901 31.4902 107.901 30.828H107.501H107.101C107.101 31.6378 107.314 32.378 107.742 33.0377L108.077 32.82ZM107.501 30.828H107.901C107.901 30.173 108.053 29.5955 108.351 29.0855L108.005 28.884L107.66 28.6825C107.285 29.3245 107.101 30.043 107.101 30.828H107.501ZM108.005 28.884L108.347 29.0926C108.645 28.6041 109.139 28.1956 109.867 27.8837L109.709 27.516L109.552 27.1483C108.712 27.5084 108.069 28.0119 107.664 28.6754L108.005 28.884ZM109.709 27.516L109.867 27.8837C110.582 27.5771 111.562 27.412 112.829 27.412V27.012V26.612C111.505 26.612 110.405 26.7829 109.552 27.1483L109.709 27.516ZM112.829 27.012V27.412H116.549V27.012V26.612H112.829V27.012ZM116.549 27.012H116.149V29.004H116.549H116.949V27.012H116.549ZM116.549 29.004V28.604H113.045V29.004V29.404H116.549V29.004ZM113.045 29.004V28.604C112.514 28.604 112.052 28.6473 111.666 28.7414C111.283 28.835 110.95 28.9851 110.705 29.2187L110.981 29.508L111.258 29.7973C111.365 29.6949 111.551 29.593 111.856 29.5186C112.159 29.4447 112.552 29.404 113.045 29.404V29.004ZM110.981 29.508L110.712 29.212C110.276 29.6086 110.053 30.1165 110.053 30.708H110.453H110.853C110.853 30.3395 110.983 30.0474 111.25 29.804L110.981 29.508ZM110.453 30.708H110.053C110.053 31.377 110.328 31.9289 110.863 32.3254L111.101 32.004L111.339 31.6826C111.011 31.4391 110.853 31.127 110.853 30.708H110.453ZM111.101 32.004L110.863 32.3254C111.388 32.7142 112.083 32.884 112.901 32.884V32.484V32.084C112.184 32.084 111.679 31.9338 111.339 31.6826L111.101 32.004ZM112.901 32.484V32.884C113.701 32.884 114.427 32.7008 115.071 32.3255L114.869 31.98L114.668 31.6345C114.159 31.9312 113.574 32.084 112.901 32.084V32.484ZM114.869 31.98L115.067 32.3279C115.742 31.9448 116.226 31.3758 116.514 30.6374L116.141 30.492L115.769 30.3466C115.545 30.9202 115.181 31.3432 114.672 31.6321L114.869 31.98ZM116.141 30.492L115.756 30.5999L116.26 32.3999L116.645 32.292L117.03 32.1841L116.526 30.3841L116.141 30.492ZM116.645 32.292L116.272 32.1489C116.02 32.8067 115.567 33.3203 114.892 33.694L115.085 34.044L115.279 34.394C116.107 33.9357 116.695 33.2813 117.019 32.4351L116.645 32.292ZM115.085 34.044L114.888 33.6958C114.23 34.0681 113.367 34.268 112.277 34.268V34.668V35.068C113.459 35.068 114.469 34.8519 115.282 34.3922L115.085 34.044ZM122.991 34.5H122.591V34.9H122.991V34.5ZM122.991 21.684V21.284H122.591V21.684H122.991ZM125.991 21.684H126.391V21.284H125.991V21.684ZM125.991 34.5V34.9H126.391V34.5H125.991ZM123.111 19.044L122.829 19.3269L122.835 19.3331L123.111 19.044ZM123.111 16.5L123.388 16.7893L123.388 16.7891L123.111 16.5ZM125.871 16.476L125.595 16.7653L125.602 16.7717L125.609 16.7778L125.871 16.476ZM125.895 19.044L126.178 19.3269L126.184 19.3205L125.895 19.044ZM122.991 34.5H123.391V21.684H122.991H122.591V34.5H122.991ZM122.991 21.684V22.084H125.991V21.684V21.284H122.991V21.684ZM125.991 21.684H125.591V34.5H125.991H126.391V21.684H125.991ZM125.991 34.5V34.1H122.991V34.5V34.9H125.991V34.5ZM124.503 19.572V19.172C124.035 19.172 123.674 19.0284 123.388 18.7549L123.111 19.044L122.835 19.3331C123.285 19.7636 123.852 19.972 124.503 19.972V19.572ZM123.111 19.044L123.394 18.7612C123.117 18.4839 122.983 18.1615 122.983 17.772H122.583H122.183C122.183 18.3745 122.402 18.9001 122.829 19.3268L123.111 19.044ZM122.583 17.772H122.983C122.983 17.3629 123.119 17.0456 123.388 16.7893L123.111 16.5L122.835 16.2107C122.4 16.6264 122.183 17.1571 122.183 17.772H122.583ZM123.111 16.5L123.388 16.7891C123.674 16.5156 124.035 16.372 124.503 16.372V15.972V15.572C123.852 15.572 123.285 15.7804 122.835 16.2109L123.111 16.5ZM124.503 15.972V16.372C124.977 16.372 125.329 16.5111 125.595 16.7653L125.871 16.476L126.148 16.1867C125.71 15.7689 125.15 15.572 124.503 15.572V15.972ZM125.871 16.476L125.609 16.7778C125.888 17.0204 126.023 17.3175 126.023 17.7H126.423H126.823C126.823 17.0905 126.591 16.5716 126.134 16.1742L125.871 16.476ZM126.423 17.7H126.023C126.023 18.1292 125.884 18.4769 125.606 18.7675L125.895 19.044L126.184 19.3205C126.611 18.8751 126.823 18.3268 126.823 17.7H126.423ZM125.895 19.044L125.613 18.7612C125.347 19.0263 124.991 19.172 124.503 19.172V19.572V19.972C125.167 19.972 125.739 19.7657 126.178 19.3268L125.895 19.044ZM129.929 34.5H129.529V34.9H129.929V34.5ZM129.929 16.692V16.292H129.529V16.692H129.929ZM132.929 16.692H133.329V16.292H132.929V16.692ZM132.929 34.5V34.9H133.329V34.5H132.929ZM129.929 34.5H130.329V16.692H129.929H129.529V34.5H129.929ZM129.929 16.692V17.092H132.929V16.692V16.292H129.929V16.692ZM132.929 16.692H132.529V34.5H132.929H133.329V16.692H132.929ZM132.929 34.5V34.1H129.929V34.5V34.9H132.929V34.5Z" fill="white" mask="url(#path-5-outside-1_329_808)"/>
</g>
</g>
<defs>
<filter id="filter0_d_329_808" x="0" y="0" width="160" height="60" filterUnits="userSpaceOnUse" color-interpolation-filters="sRGB">
<feFlood flood-opacity="0" result="BackgroundImageFix"/>
<feColorMatrix in="SourceAlpha" type="matrix" values="0 0 0 0 0 0 0 0 0 0 0 0 0 0 0 0 0 0 127 0" result="hardAlpha"/>
<feOffset dy="4"/>
<feGaussianBlur stdDeviation="2"/>
<feComposite in2="hardAlpha" operator="out"/>
<feColorMatrix type="matrix" values="0 0 0 0 0 0 0 0 0 0 0 0 0 0 0 0 0 0 0.25 0"/>
<feBlend mode="normal" in2="BackgroundImageFix" result="effect1_dropShadow_329_808"/>
<feBlend mode="normal" in="SourceGraphic" in2="effect1_dropShadow_329_808" result="shape"/>
</filter>
<filter id="filter1_d_329_808" x="62.958" y="15.5718" width="74.3711" height="27.4961" filterUnits="userSpaceOnUse" color-interpolation-filters="sRGB">
<feFlood flood-opacity="0" result="BackgroundImageFix"/>
<feColorMatrix in="SourceAlpha" type="matrix" values="0 0 0 0 0 0 0 0 0 0 0 0 0 0 0 0 0 0 127 0" result="hardAlpha"/>
<feOffset dy="4"/>
<feGaussianBlur stdDeviation="2"/>
<feComposite in2="hardAlpha" operator="out"/>
<feColorMatrix type="matrix" values="0 0 0 0 0 0 0 0 0 0 0 0 0 0 0 0 0 0 0.4 0"/>
<feBlend mode="normal" in2="BackgroundImageFix" result="effect1_dropShadow_329_808"/>
<feBlend mode="normal" in="SourceGraphic" in2="effect1_dropShadow_329_808" result="shape"/>
</filter>
<linearGradient id="paint0_linear_329_808" x1="80" y1="36.3358" x2="80" y2="-77.4731" gradientUnits="userSpaceOnUse">
<stop stop-color="white" stop-opacity="0"/>
<stop offset="1" stop-color="white" stop-opacity="0.15"/>
</linearGradient>
<linearGradient id="paint1_linear_329_808" x1="100" y1="11.5" x2="100" y2="40.5" gradientUnits="userSpaceOnUse">
<stop offset="0.329372" stop-color="white"/>
<stop offset="1" stop-color="#D0D0D0"/>
</linearGradient>
</defs>
</svg>
