<svg width="206" height="60" viewBox="0 0 206 60" fill="none" xmlns="http://www.w3.org/2000/svg">
<g filter="url(#filter0_d_329_804)">
<rect x="5" y="1" width="196" height="50" rx="10" fill="#0D1117" fill-opacity="0.24" shape-rendering="crispEdges"/>
<rect x="5" y="1" width="196" height="50" rx="10" fill="url(#paint0_linear_329_804)" shape-rendering="crispEdges"/>
<rect x="4.5" y="0.5" width="197" height="51" rx="10.5" stroke="white" stroke-opacity="0.33" shape-rendering="crispEdges"/>
<rect x="25" y="11" width="30" height="30" rx="15" fill="url(#paint1_linear_329_804)"/>
<path fill-rule="evenodd" clip-rule="evenodd" d="M31.7898 25.8419C36.1626 23.9368 39.0785 22.6808 40.5374 22.0739C44.7031 20.3413 45.5687 20.0403 46.1329 20.0304C46.257 20.0282 46.5344 20.0589 46.7141 20.2048C46.8659 20.3279 46.9076 20.4942 46.9276 20.611C46.9476 20.7277 46.9725 20.9937 46.9527 21.2015C46.7269 23.5733 45.7502 29.3292 45.2533 31.9857C45.043 33.1098 44.629 33.4867 44.2281 33.5236C43.3571 33.6037 42.6956 32.9479 41.8519 32.3949C40.5317 31.5295 39.7859 30.9907 38.5044 30.1463C37.0235 29.1703 37.9835 28.6339 38.8275 27.7573C39.0484 27.5279 42.8864 24.037 42.9607 23.7203C42.97 23.6807 42.9786 23.533 42.8909 23.4551C42.8032 23.3771 42.6737 23.4038 42.5803 23.425C42.4479 23.455 40.3389 24.849 36.2532 27.607C35.6546 28.018 35.1123 28.2183 34.6265 28.2078C34.0909 28.1962 33.0607 27.905 32.2948 27.656C31.3555 27.3507 30.6089 27.1892 30.6739 26.6707C30.7077 26.4005 31.0797 26.1243 31.7898 25.8419Z" fill="white"/>
<g filter="url(#filter1_d_329_804)">
<mask id="path-5-outside-1_329_804" maskUnits="userSpaceOnUse" x="64" y="15.5" width="116" height="25" fill="black">
<rect fill="white" x="64" y="15.5" width="116" height="25"/>
<path d="M70.9257 34.5V20.34H65.3577V17.7H79.6137V20.34H74.0457V34.5H70.9257ZM86.3787 34.668C84.9547 34.668 83.7067 34.388 82.6347 33.828C81.5787 33.252 80.7547 32.468 80.1627 31.476C79.5867 30.484 79.2987 29.356 79.2987 28.092C79.2987 26.812 79.5787 25.684 80.1387 24.708C80.7147 23.716 81.4987 22.94 82.4907 22.38C83.4987 21.82 84.6427 21.54 85.9227 21.54C87.1707 21.54 88.2827 21.812 89.2587 22.356C90.2347 22.9 91.0027 23.668 91.5627 24.66C92.1227 25.652 92.4027 26.82 92.4027 28.164C92.4027 28.292 92.3947 28.436 92.3787 28.596C92.3787 28.756 92.3707 28.908 92.3547 29.052H81.6747V27.06H90.7707L89.5947 27.684C89.6107 26.948 89.4587 26.3 89.1387 25.74C88.8187 25.18 88.3787 24.74 87.8187 24.42C87.2747 24.1 86.6427 23.94 85.9227 23.94C85.1867 23.94 84.5387 24.1 83.9787 24.42C83.4347 24.74 83.0027 25.188 82.6827 25.764C82.3787 26.324 82.2267 26.988 82.2267 27.756V28.236C82.2267 29.004 82.4027 29.684 82.7547 30.276C83.1067 30.868 83.6027 31.324 84.2427 31.644C84.8827 31.964 85.6187 32.124 86.4507 32.124C87.1707 32.124 87.8187 32.012 88.3947 31.788C88.9707 31.564 89.4827 31.212 89.9307 30.732L91.5387 32.58C90.9627 33.252 90.2347 33.772 89.3547 34.14C88.4907 34.492 87.4987 34.668 86.3787 34.668ZM95.2844 34.5V16.692H98.2844V34.5H95.2844ZM108.246 34.668C106.822 34.668 105.574 34.388 104.502 33.828C103.446 33.252 102.622 32.468 102.03 31.476C101.454 30.484 101.166 29.356 101.166 28.092C101.166 26.812 101.446 25.684 102.006 24.708C102.582 23.716 103.366 22.94 104.358 22.38C105.366 21.82 106.51 21.54 107.79 21.54C109.038 21.54 110.15 21.812 111.126 22.356C112.102 22.9 112.87 23.668 113.43 24.66C113.99 25.652 114.27 26.82 114.27 28.164C114.27 28.292 114.262 28.436 114.246 28.596C114.246 28.756 114.238 28.908 114.222 29.052H103.542V27.06H112.638L111.462 27.684C111.478 26.948 111.326 26.3 111.006 25.74C110.686 25.18 110.246 24.74 109.686 24.42C109.142 24.1 108.51 23.94 107.79 23.94C107.054 23.94 106.406 24.1 105.846 24.42C105.302 24.74 104.87 25.188 104.55 25.764C104.246 26.324 104.094 26.988 104.094 27.756V28.236C104.094 29.004 104.27 29.684 104.622 30.276C104.974 30.868 105.47 31.324 106.11 31.644C106.75 31.964 107.486 32.124 108.318 32.124C109.038 32.124 109.686 32.012 110.262 31.788C110.838 31.564 111.35 31.212 111.798 30.732L113.406 32.58C112.83 33.252 112.102 33.772 111.222 34.14C110.358 34.492 109.366 34.668 108.246 34.668ZM122.96 39.324C121.776 39.324 120.616 39.164 119.48 38.844C118.36 38.54 117.44 38.092 116.72 37.5L118.064 35.244C118.624 35.708 119.328 36.076 120.176 36.348C121.04 36.636 121.912 36.78 122.792 36.78C124.2 36.78 125.232 36.452 125.888 35.796C126.544 35.156 126.872 34.188 126.872 32.892V30.612L127.112 27.708L127.016 24.804V21.684H129.872V32.556C129.872 34.876 129.28 36.58 128.096 37.668C126.912 38.772 125.2 39.324 122.96 39.324ZM122.576 33.924C121.36 33.924 120.256 33.668 119.264 33.156C118.288 32.628 117.512 31.9 116.936 30.972C116.376 30.044 116.096 28.956 116.096 27.708C116.096 26.476 116.376 25.396 116.936 24.468C117.512 23.54 118.288 22.82 119.264 22.308C120.256 21.796 121.36 21.54 122.576 21.54C123.664 21.54 124.64 21.756 125.504 22.188C126.368 22.62 127.056 23.292 127.568 24.204C128.096 25.116 128.36 26.284 128.36 27.708C128.36 29.132 128.096 30.308 127.568 31.236C127.056 32.148 126.368 32.828 125.504 33.276C124.64 33.708 123.664 33.924 122.576 33.924ZM123.032 31.38C123.784 31.38 124.456 31.228 125.048 30.924C125.64 30.604 126.096 30.172 126.416 29.628C126.752 29.068 126.92 28.428 126.92 27.708C126.92 26.988 126.752 26.356 126.416 25.812C126.096 25.252 125.64 24.828 125.048 24.54C124.456 24.236 123.784 24.084 123.032 24.084C122.28 24.084 121.6 24.236 120.992 24.54C120.4 24.828 119.936 25.252 119.6 25.812C119.28 26.356 119.12 26.988 119.12 27.708C119.12 28.428 119.28 29.068 119.6 29.628C119.936 30.172 120.4 30.604 120.992 30.924C121.6 31.228 122.28 31.38 123.032 31.38ZM133.816 34.5V21.684H136.672V25.212L136.336 24.18C136.72 23.316 137.32 22.66 138.136 22.212C138.968 21.764 140 21.54 141.232 21.54V24.396C141.104 24.364 140.984 24.348 140.872 24.348C140.76 24.332 140.648 24.324 140.536 24.324C139.4 24.324 138.496 24.66 137.824 25.332C137.152 25.988 136.816 26.972 136.816 28.284V34.5H133.816ZM150.759 34.5V31.908L150.591 31.356V26.82C150.591 25.94 150.327 25.26 149.799 24.78C149.271 24.284 148.471 24.036 147.399 24.036C146.679 24.036 145.967 24.148 145.263 24.372C144.575 24.596 143.991 24.908 143.511 25.308L142.335 23.124C143.023 22.596 143.839 22.204 144.783 21.948C145.743 21.676 146.735 21.54 147.759 21.54C149.615 21.54 151.047 21.988 152.055 22.884C153.079 23.764 153.591 25.132 153.591 26.988V34.5H150.759ZM146.727 34.668C145.767 34.668 144.927 34.508 144.207 34.188C143.487 33.852 142.927 33.396 142.527 32.82C142.143 32.228 141.951 31.564 141.951 30.828C141.951 30.108 142.119 29.46 142.455 28.884C142.807 28.308 143.375 27.852 144.159 27.516C144.943 27.18 145.983 27.012 147.279 27.012H150.999V29.004H147.495C146.471 29.004 145.783 29.172 145.431 29.508C145.079 29.828 144.903 30.228 144.903 30.708C144.903 31.252 145.119 31.684 145.551 32.004C145.983 32.324 146.583 32.484 147.351 32.484C148.087 32.484 148.743 32.316 149.319 31.98C149.911 31.644 150.335 31.148 150.591 30.492L151.095 32.292C150.807 33.044 150.287 33.628 149.535 34.044C148.799 34.46 147.863 34.668 146.727 34.668ZM157.441 34.5V21.684H160.297V25.092L159.793 24.084C160.225 23.252 160.849 22.62 161.665 22.188C162.497 21.756 163.441 21.54 164.497 21.54C165.697 21.54 166.737 21.836 167.617 22.428C168.513 23.02 169.105 23.916 169.393 25.116L168.217 24.708C168.633 23.748 169.321 22.98 170.281 22.404C171.241 21.828 172.353 21.54 173.617 21.54C174.641 21.54 175.545 21.74 176.329 22.14C177.129 22.54 177.753 23.156 178.201 23.988C178.649 24.804 178.873 25.86 178.873 27.156V34.5H175.873V27.54C175.873 26.404 175.625 25.556 175.129 24.996C174.633 24.436 173.921 24.156 172.993 24.156C172.337 24.156 171.753 24.3 171.241 24.588C170.745 24.876 170.353 25.3 170.065 25.86C169.793 26.42 169.657 27.132 169.657 27.996V34.5H166.657V27.54C166.657 26.404 166.409 25.556 165.913 24.996C165.417 24.436 164.705 24.156 163.777 24.156C163.121 24.156 162.537 24.3 162.025 24.588C161.529 24.876 161.137 25.3 160.849 25.86C160.577 26.42 160.441 27.132 160.441 27.996V34.5H157.441Z"/>
</mask>
<path d="M70.9257 34.5V20.34H65.3577V17.7H79.6137V20.34H74.0457V34.5H70.9257ZM86.3787 34.668C84.9547 34.668 83.7067 34.388 82.6347 33.828C81.5787 33.252 80.7547 32.468 80.1627 31.476C79.5867 30.484 79.2987 29.356 79.2987 28.092C79.2987 26.812 79.5787 25.684 80.1387 24.708C80.7147 23.716 81.4987 22.94 82.4907 22.38C83.4987 21.82 84.6427 21.54 85.9227 21.54C87.1707 21.54 88.2827 21.812 89.2587 22.356C90.2347 22.9 91.0027 23.668 91.5627 24.66C92.1227 25.652 92.4027 26.82 92.4027 28.164C92.4027 28.292 92.3947 28.436 92.3787 28.596C92.3787 28.756 92.3707 28.908 92.3547 29.052H81.6747V27.06H90.7707L89.5947 27.684C89.6107 26.948 89.4587 26.3 89.1387 25.74C88.8187 25.18 88.3787 24.74 87.8187 24.42C87.2747 24.1 86.6427 23.94 85.9227 23.94C85.1867 23.94 84.5387 24.1 83.9787 24.42C83.4347 24.74 83.0027 25.188 82.6827 25.764C82.3787 26.324 82.2267 26.988 82.2267 27.756V28.236C82.2267 29.004 82.4027 29.684 82.7547 30.276C83.1067 30.868 83.6027 31.324 84.2427 31.644C84.8827 31.964 85.6187 32.124 86.4507 32.124C87.1707 32.124 87.8187 32.012 88.3947 31.788C88.9707 31.564 89.4827 31.212 89.9307 30.732L91.5387 32.58C90.9627 33.252 90.2347 33.772 89.3547 34.14C88.4907 34.492 87.4987 34.668 86.3787 34.668ZM95.2844 34.5V16.692H98.2844V34.5H95.2844ZM108.246 34.668C106.822 34.668 105.574 34.388 104.502 33.828C103.446 33.252 102.622 32.468 102.03 31.476C101.454 30.484 101.166 29.356 101.166 28.092C101.166 26.812 101.446 25.684 102.006 24.708C102.582 23.716 103.366 22.94 104.358 22.38C105.366 21.82 106.51 21.54 107.79 21.54C109.038 21.54 110.15 21.812 111.126 22.356C112.102 22.9 112.87 23.668 113.43 24.66C113.99 25.652 114.27 26.82 114.27 28.164C114.27 28.292 114.262 28.436 114.246 28.596C114.246 28.756 114.238 28.908 114.222 29.052H103.542V27.06H112.638L111.462 27.684C111.478 26.948 111.326 26.3 111.006 25.74C110.686 25.18 110.246 24.74 109.686 24.42C109.142 24.1 108.51 23.94 107.79 23.94C107.054 23.94 106.406 24.1 105.846 24.42C105.302 24.74 104.87 25.188 104.55 25.764C104.246 26.324 104.094 26.988 104.094 27.756V28.236C104.094 29.004 104.27 29.684 104.622 30.276C104.974 30.868 105.47 31.324 106.11 31.644C106.75 31.964 107.486 32.124 108.318 32.124C109.038 32.124 109.686 32.012 110.262 31.788C110.838 31.564 111.35 31.212 111.798 30.732L113.406 32.58C112.83 33.252 112.102 33.772 111.222 34.14C110.358 34.492 109.366 34.668 108.246 34.668ZM122.96 39.324C121.776 39.324 120.616 39.164 119.48 38.844C118.36 38.54 117.44 38.092 116.72 37.5L118.064 35.244C118.624 35.708 119.328 36.076 120.176 36.348C121.04 36.636 121.912 36.78 122.792 36.78C124.2 36.78 125.232 36.452 125.888 35.796C126.544 35.156 126.872 34.188 126.872 32.892V30.612L127.112 27.708L127.016 24.804V21.684H129.872V32.556C129.872 34.876 129.28 36.58 128.096 37.668C126.912 38.772 125.2 39.324 122.96 39.324ZM122.576 33.924C121.36 33.924 120.256 33.668 119.264 33.156C118.288 32.628 117.512 31.9 116.936 30.972C116.376 30.044 116.096 28.956 116.096 27.708C116.096 26.476 116.376 25.396 116.936 24.468C117.512 23.54 118.288 22.82 119.264 22.308C120.256 21.796 121.36 21.54 122.576 21.54C123.664 21.54 124.64 21.756 125.504 22.188C126.368 22.62 127.056 23.292 127.568 24.204C128.096 25.116 128.36 26.284 128.36 27.708C128.36 29.132 128.096 30.308 127.568 31.236C127.056 32.148 126.368 32.828 125.504 33.276C124.64 33.708 123.664 33.924 122.576 33.924ZM123.032 31.38C123.784 31.38 124.456 31.228 125.048 30.924C125.64 30.604 126.096 30.172 126.416 29.628C126.752 29.068 126.92 28.428 126.92 27.708C126.92 26.988 126.752 26.356 126.416 25.812C126.096 25.252 125.64 24.828 125.048 24.54C124.456 24.236 123.784 24.084 123.032 24.084C122.28 24.084 121.6 24.236 120.992 24.54C120.4 24.828 119.936 25.252 119.6 25.812C119.28 26.356 119.12 26.988 119.12 27.708C119.12 28.428 119.28 29.068 119.6 29.628C119.936 30.172 120.4 30.604 120.992 30.924C121.6 31.228 122.28 31.38 123.032 31.38ZM133.816 34.5V21.684H136.672V25.212L136.336 24.18C136.72 23.316 137.32 22.66 138.136 22.212C138.968 21.764 140 21.54 141.232 21.54V24.396C141.104 24.364 140.984 24.348 140.872 24.348C140.76 24.332 140.648 24.324 140.536 24.324C139.4 24.324 138.496 24.66 137.824 25.332C137.152 25.988 136.816 26.972 136.816 28.284V34.5H133.816ZM150.759 34.5V31.908L150.591 31.356V26.82C150.591 25.94 150.327 25.26 149.799 24.78C149.271 24.284 148.471 24.036 147.399 24.036C146.679 24.036 145.967 24.148 145.263 24.372C144.575 24.596 143.991 24.908 143.511 25.308L142.335 23.124C143.023 22.596 143.839 22.204 144.783 21.948C145.743 21.676 146.735 21.54 147.759 21.54C149.615 21.54 151.047 21.988 152.055 22.884C153.079 23.764 153.591 25.132 153.591 26.988V34.5H150.759ZM146.727 34.668C145.767 34.668 144.927 34.508 144.207 34.188C143.487 33.852 142.927 33.396 142.527 32.82C142.143 32.228 141.951 31.564 141.951 30.828C141.951 30.108 142.119 29.46 142.455 28.884C142.807 28.308 143.375 27.852 144.159 27.516C144.943 27.18 145.983 27.012 147.279 27.012H150.999V29.004H147.495C146.471 29.004 145.783 29.172 145.431 29.508C145.079 29.828 144.903 30.228 144.903 30.708C144.903 31.252 145.119 31.684 145.551 32.004C145.983 32.324 146.583 32.484 147.351 32.484C148.087 32.484 148.743 32.316 149.319 31.98C149.911 31.644 150.335 31.148 150.591 30.492L151.095 32.292C150.807 33.044 150.287 33.628 149.535 34.044C148.799 34.46 147.863 34.668 146.727 34.668ZM157.441 34.5V21.684H160.297V25.092L159.793 24.084C160.225 23.252 160.849 22.62 161.665 22.188C162.497 21.756 163.441 21.54 164.497 21.54C165.697 21.54 166.737 21.836 167.617 22.428C168.513 23.02 169.105 23.916 169.393 25.116L168.217 24.708C168.633 23.748 169.321 22.98 170.281 22.404C171.241 21.828 172.353 21.54 173.617 21.54C174.641 21.54 175.545 21.74 176.329 22.14C177.129 22.54 177.753 23.156 178.201 23.988C178.649 24.804 178.873 25.86 178.873 27.156V34.5H175.873V27.54C175.873 26.404 175.625 25.556 175.129 24.996C174.633 24.436 173.921 24.156 172.993 24.156C172.337 24.156 171.753 24.3 171.241 24.588C170.745 24.876 170.353 25.3 170.065 25.86C169.793 26.42 169.657 27.132 169.657 27.996V34.5H166.657V27.54C166.657 26.404 166.409 25.556 165.913 24.996C165.417 24.436 164.705 24.156 163.777 24.156C163.121 24.156 162.537 24.3 162.025 24.588C161.529 24.876 161.137 25.3 160.849 25.86C160.577 26.42 160.441 27.132 160.441 27.996V34.5H157.441Z" fill="url(#paint2_linear_329_804)"/>
<path d="M70.9257 34.5H70.5257V34.9H70.9257V34.5ZM70.9257 20.34H71.3257V19.94H70.9257V20.34ZM65.3577 20.34H64.9577V20.74H65.3577V20.34ZM65.3577 17.7V17.3H64.9577V17.7H65.3577ZM79.6137 17.7H80.0137V17.3H79.6137V17.7ZM79.6137 20.34V20.74H80.0137V20.34H79.6137ZM74.0457 20.34V19.94H73.6457V20.34H74.0457ZM74.0457 34.5V34.9H74.4457V34.5H74.0457ZM70.9257 34.5H71.3257V20.34H70.9257H70.5257V34.5H70.9257ZM70.9257 20.34V19.94H65.3577V20.34V20.74H70.9257V20.34ZM65.3577 20.34H65.7577V17.7H65.3577H64.9577V20.34H65.3577ZM65.3577 17.7V18.1H79.6137V17.7V17.3H65.3577V17.7ZM79.6137 17.7H79.2137V20.34H79.6137H80.0137V17.7H79.6137ZM79.6137 20.34V19.94H74.0457V20.34V20.74H79.6137V20.34ZM74.0457 20.34H73.6457V34.5H74.0457H74.4457V20.34H74.0457ZM74.0457 34.5V34.1H70.9257V34.5V34.9H74.0457V34.5ZM82.6347 33.828L82.4431 34.1792L82.4495 34.1825L82.6347 33.828ZM80.1627 31.476L79.8168 31.6769L79.8192 31.681L80.1627 31.476ZM80.1387 24.708L79.7928 24.5071L79.7918 24.5089L80.1387 24.708ZM82.4907 22.38L82.2965 22.0303L82.2941 22.0317L82.4907 22.38ZM89.2587 22.356L89.4535 22.0066V22.0066L89.2587 22.356ZM92.3787 28.596L91.9807 28.5562L91.9787 28.576V28.596H92.3787ZM92.3547 29.052V29.452H92.7127L92.7523 29.0962L92.3547 29.052ZM81.6747 29.052H81.2747V29.452H81.6747V29.052ZM81.6747 27.06V26.66H81.2747V27.06H81.6747ZM90.7707 27.06L90.9582 27.4133L90.7707 26.66V27.06ZM89.5947 27.684L89.1948 27.6753L89.18 28.3569L89.7822 28.0373L89.5947 27.684ZM89.1387 25.74L88.7914 25.9385V25.9385L89.1387 25.74ZM87.8187 24.42L87.6159 24.7648L87.6203 24.7673L87.8187 24.42ZM83.9787 24.42L83.7802 24.0727L83.7759 24.0752L83.9787 24.42ZM82.6827 25.764L82.333 25.5697L82.3312 25.5732L82.6827 25.764ZM84.2427 31.644L84.0638 32.0018V32.0018L84.2427 31.644ZM88.3947 31.788L88.5397 32.1608V32.1608L88.3947 31.788ZM89.9307 30.732L90.2325 30.4694L89.9411 30.1346L89.6383 30.4591L89.9307 30.732ZM91.5387 32.58L91.8424 32.8403L92.0672 32.578L91.8405 32.3174L91.5387 32.58ZM89.3547 34.14L89.5056 34.5105L89.509 34.509L89.3547 34.14ZM86.3787 34.668V34.268C85.0078 34.268 83.8254 33.9987 82.8199 33.4735L82.6347 33.828L82.4495 34.1825C83.588 34.7773 84.9016 35.068 86.3787 35.068V34.668ZM82.6347 33.828L82.8263 33.4768C81.8304 32.9336 81.06 32.199 80.5062 31.271L80.1627 31.476L79.8192 31.681C80.4494 32.737 81.3271 33.5704 82.4432 34.1792L82.6347 33.828ZM80.1627 31.476L80.5086 31.2751C79.9716 30.3502 79.6987 29.2928 79.6987 28.092H79.2987H78.8987C78.8987 29.4192 79.2018 30.6178 79.8168 31.6769L80.1627 31.476ZM79.2987 28.092H79.6987C79.6987 26.8721 79.965 25.8145 80.4857 24.9071L80.1387 24.708L79.7918 24.5089C79.1925 25.5535 78.8987 26.7519 78.8987 28.092H79.2987ZM80.1387 24.708L80.4846 24.9089C81.0251 23.978 81.7578 23.2531 82.6874 22.7283L82.4907 22.38L82.2941 22.0317C81.2396 22.6269 80.4043 23.454 79.7928 24.5071L80.1387 24.708ZM82.4907 22.38L82.685 22.7297C83.6272 22.2062 84.7031 21.94 85.9227 21.94V21.54V21.14C84.5824 21.14 83.3702 21.4338 82.2965 22.0303L82.4907 22.38ZM85.9227 21.54V21.94C87.1107 21.94 88.1542 22.1983 89.064 22.7054L89.2587 22.356L89.4535 22.0066C88.4112 21.4257 87.2308 21.14 85.9227 21.14V21.54ZM89.2587 22.356L89.064 22.7054C89.9744 23.2128 90.6898 23.9274 91.2144 24.8566L91.5627 24.66L91.911 24.4634C91.3156 23.4086 90.495 22.5872 89.4535 22.0066L89.2587 22.356ZM91.5627 24.66L91.2144 24.8566C91.7349 25.7787 92.0027 26.8765 92.0027 28.164H92.4027H92.8027C92.8027 26.7635 92.5106 25.5253 91.911 24.4634L91.5627 24.66ZM92.4027 28.164H92.0027C92.0027 28.2759 91.9957 28.4062 91.9807 28.5562L92.3787 28.596L92.7767 28.6358C92.7937 28.4658 92.8027 28.3081 92.8027 28.164H92.4027ZM92.3787 28.596H91.9787C91.9787 28.7427 91.9714 28.8799 91.9572 29.0078L92.3547 29.052L92.7523 29.0962C92.7701 28.9361 92.7787 28.7693 92.7787 28.596H92.3787ZM92.3547 29.052V28.652H81.6747V29.052V29.452H92.3547V29.052ZM81.6747 29.052H82.0747V27.06H81.6747H81.2747V29.052H81.6747ZM81.6747 27.06V27.46H90.7707V27.06V26.66H81.6747V27.06ZM90.7707 27.06L90.5832 26.7067L89.4072 27.3307L89.5947 27.684L89.7822 28.0373L90.9582 27.4133L90.7707 27.06ZM89.5947 27.684L89.9946 27.6927C90.012 26.8946 89.8469 26.173 89.486 25.5415L89.1387 25.74L88.7914 25.9385C89.0706 26.427 89.2095 27.0014 89.1948 27.6753L89.5947 27.684ZM89.1387 25.74L89.486 25.5415C89.1306 24.9195 88.6392 24.4281 88.0172 24.0727L87.8187 24.42L87.6203 24.7673C88.1183 25.0519 88.5069 25.4405 88.7914 25.9385L89.1387 25.74ZM87.8187 24.42L88.0215 24.0752C87.4078 23.7142 86.7038 23.54 85.9227 23.54V23.94V24.34C86.5816 24.34 87.1416 24.4858 87.6159 24.7648L87.8187 24.42ZM85.9227 23.94V23.54C85.1271 23.54 84.4088 23.7135 83.7803 24.0727L83.9787 24.42L84.1772 24.7673C84.6686 24.4865 85.2464 24.34 85.9227 24.34V23.94ZM83.9787 24.42L83.7759 24.0752C83.1676 24.433 82.6861 24.9342 82.3331 25.5697L82.6827 25.764L83.0324 25.9583C83.3193 25.4418 83.7018 25.047 84.1815 24.7648L83.9787 24.42ZM82.6827 25.764L82.3312 25.5732C81.9895 26.2026 81.8267 26.935 81.8267 27.756H82.2267H82.6267C82.6267 27.041 82.768 26.4454 83.0343 25.9548L82.6827 25.764ZM82.2267 27.756H81.8267V28.236H82.2267H82.6267V27.756H82.2267ZM82.2267 28.236H81.8267C81.8267 29.0675 82.018 29.8197 82.4109 30.4804L82.7547 30.276L83.0985 30.0716C82.7874 29.5483 82.6267 28.9405 82.6267 28.236H82.2267ZM82.7547 30.276L82.4109 30.4804C82.8036 31.1409 83.3581 31.6489 84.0638 32.0018L84.2427 31.644L84.4216 31.2862C83.8473 30.9991 83.4098 30.5951 83.0985 30.0716L82.7547 30.276ZM84.2427 31.644L84.0638 32.0018C84.7678 32.3537 85.5667 32.524 86.4507 32.524V32.124V31.724C85.6707 31.724 84.9977 31.5743 84.4216 31.2862L84.2427 31.644ZM86.4507 32.124V32.524C87.2123 32.524 87.9105 32.4055 88.5397 32.1608L88.3947 31.788L88.2497 31.4152C87.7269 31.6185 87.1292 31.724 86.4507 31.724V32.124ZM88.3947 31.788L88.5397 32.1608C89.1752 31.9137 89.7367 31.5261 90.2231 31.0049L89.9307 30.732L89.6383 30.4591C89.2287 30.8979 88.7662 31.2143 88.2497 31.4152L88.3947 31.788ZM89.9307 30.732L89.629 30.9946L91.237 32.8426L91.5387 32.58L91.8405 32.3174L90.2325 30.4694L89.9307 30.732ZM91.5387 32.58L91.235 32.3197C90.7028 32.9407 90.0274 33.4251 89.2004 33.771L89.3547 34.14L89.509 34.509C90.4421 34.1189 91.2227 33.5633 91.8424 32.8403L91.5387 32.58ZM89.3547 34.14L89.2038 33.7696C88.3963 34.0985 87.4571 34.268 86.3787 34.268V34.668V35.068C87.5403 35.068 88.5851 34.8855 89.5056 34.5104L89.3547 34.14ZM95.2844 34.5H94.8844V34.9H95.2844V34.5ZM95.2844 16.692V16.292H94.8844V16.692H95.2844ZM98.2844 16.692H98.6844V16.292H98.2844V16.692ZM98.2844 34.5V34.9H98.6844V34.5H98.2844ZM95.2844 34.5H95.6844V16.692H95.2844H94.8844V34.5H95.2844ZM95.2844 16.692V17.092H98.2844V16.692V16.292H95.2844V16.692ZM98.2844 16.692H97.8844V34.5H98.2844H98.6844V16.692H98.2844ZM98.2844 34.5V34.1H95.2844V34.5V34.9H98.2844V34.5ZM104.502 33.828L104.31 34.1792L104.317 34.1825L104.502 33.828ZM102.03 31.476L101.684 31.6769L101.686 31.681L102.03 31.476ZM102.006 24.708L101.66 24.5071L101.659 24.5089L102.006 24.708ZM104.358 22.38L104.164 22.0303L104.161 22.0317L104.358 22.38ZM111.126 22.356L111.321 22.0066V22.0066L111.126 22.356ZM114.246 28.596L113.848 28.5562L113.846 28.576V28.596H114.246ZM114.222 29.052V29.452H114.58L114.619 29.0962L114.222 29.052ZM103.542 29.052H103.142V29.452H103.542V29.052ZM103.542 27.06V26.66H103.142V27.06H103.542ZM112.638 27.06L112.825 27.4133L112.638 26.66V27.06ZM111.462 27.684L111.062 27.6753L111.047 28.3569L111.649 28.0373L111.462 27.684ZM111.006 25.74L110.659 25.9385V25.9385L111.006 25.74ZM109.686 24.42L109.483 24.7648L109.487 24.7673L109.686 24.42ZM105.846 24.42L105.647 24.0727L105.643 24.0752L105.846 24.42ZM104.55 25.764L104.2 25.5697L104.198 25.5732L104.55 25.764ZM106.11 31.644L105.931 32.0018V32.0018L106.11 31.644ZM110.262 31.788L110.407 32.1608V32.1608L110.262 31.788ZM111.798 30.732L112.1 30.4694L111.808 30.1346L111.505 30.4591L111.798 30.732ZM113.406 32.58L113.71 32.8403L113.934 32.578L113.708 32.3174L113.406 32.58ZM111.222 34.14L111.373 34.5105L111.376 34.509L111.222 34.14ZM108.246 34.668V34.268C106.875 34.268 105.693 33.9987 104.687 33.4735L104.502 33.828L104.317 34.1825C105.455 34.7773 106.769 35.068 108.246 35.068V34.668ZM104.502 33.828L104.693 33.4768C103.698 32.9336 102.927 32.199 102.373 31.271L102.03 31.476L101.686 31.681C102.317 32.737 103.194 33.5704 104.31 34.1792L104.502 33.828ZM102.03 31.476L102.376 31.2751C101.839 30.3502 101.566 29.2928 101.566 28.092H101.166H100.766C100.766 29.4192 101.069 30.6178 101.684 31.6769L102.03 31.476ZM101.166 28.092H101.566C101.566 26.8721 101.832 25.8145 102.353 24.9071L102.006 24.708L101.659 24.5089C101.06 25.5535 100.766 26.7519 100.766 28.092H101.166ZM102.006 24.708L102.352 24.9089C102.892 23.978 103.625 23.2531 104.555 22.7283L104.358 22.38L104.161 22.0317C103.107 22.6269 102.271 23.454 101.66 24.5071L102.006 24.708ZM104.358 22.38L104.552 22.7297C105.494 22.2062 106.57 21.94 107.79 21.94V21.54V21.14C106.45 21.14 105.237 21.4338 104.164 22.0303L104.358 22.38ZM107.79 21.54V21.94C108.978 21.94 110.021 22.1983 110.931 22.7054L111.126 22.356L111.321 22.0066C110.278 21.4257 109.098 21.14 107.79 21.14V21.54ZM111.126 22.356L110.931 22.7054C111.842 23.2128 112.557 23.9274 113.082 24.8566L113.43 24.66L113.778 24.4634C113.183 23.4086 112.362 22.5872 111.321 22.0066L111.126 22.356ZM113.43 24.66L113.082 24.8566C113.602 25.7787 113.87 26.8765 113.87 28.164H114.27H114.67C114.67 26.7635 114.378 25.5253 113.778 24.4634L113.43 24.66ZM114.27 28.164H113.87C113.87 28.2759 113.863 28.4062 113.848 28.5562L114.246 28.596L114.644 28.6358C114.661 28.4658 114.67 28.3081 114.67 28.164H114.27ZM114.246 28.596H113.846C113.846 28.7427 113.839 28.8799 113.824 29.0078L114.222 29.052L114.619 29.0962C114.637 28.9361 114.646 28.7693 114.646 28.596H114.246ZM114.222 29.052V28.652H103.542V29.052V29.452H114.222V29.052ZM103.542 29.052H103.942V27.06H103.542H103.142V29.052H103.542ZM103.542 27.06V27.46H112.638V27.06V26.66H103.542V27.06ZM112.638 27.06L112.45 26.7067L111.274 27.3307L111.462 27.684L111.649 28.0373L112.825 27.4133L112.638 27.06ZM111.462 27.684L111.862 27.6927C111.879 26.8946 111.714 26.173 111.353 25.5415L111.006 25.74L110.659 25.9385C110.938 26.427 111.077 27.0014 111.062 27.6753L111.462 27.684ZM111.006 25.74L111.353 25.5415C110.998 24.9195 110.506 24.4281 109.884 24.0727L109.686 24.42L109.487 24.7673C109.985 25.0519 110.374 25.4405 110.659 25.9385L111.006 25.74ZM109.686 24.42L109.889 24.0752C109.275 23.7142 108.571 23.54 107.79 23.54V23.94V24.34C108.449 24.34 109.009 24.4858 109.483 24.7648L109.686 24.42ZM107.79 23.94V23.54C106.994 23.54 106.276 23.7135 105.647 24.0727L105.846 24.42L106.044 24.7673C106.536 24.4865 107.114 24.34 107.79 24.34V23.94ZM105.846 24.42L105.643 24.0752C105.035 24.433 104.553 24.9342 104.2 25.5697L104.55 25.764L104.9 25.9583C105.187 25.4418 105.569 25.047 106.049 24.7648L105.846 24.42ZM104.55 25.764L104.198 25.5732C103.857 26.2026 103.694 26.935 103.694 27.756H104.094H104.494C104.494 27.041 104.635 26.4454 104.901 25.9548L104.55 25.764ZM104.094 27.756H103.694V28.236H104.094H104.494V27.756H104.094ZM104.094 28.236H103.694C103.694 29.0675 103.885 29.8197 104.278 30.4804L104.622 30.276L104.966 30.0716C104.655 29.5483 104.494 28.9405 104.494 28.236H104.094ZM104.622 30.276L104.278 30.4804C104.671 31.1409 105.225 31.6489 105.931 32.0018L106.11 31.644L106.289 31.2862C105.715 30.9991 105.277 30.5951 104.966 30.0716L104.622 30.276ZM106.11 31.644L105.931 32.0018C106.635 32.3537 107.434 32.524 108.318 32.524V32.124V31.724C107.538 31.724 106.865 31.5743 106.289 31.2862L106.11 31.644ZM108.318 32.124V32.524C109.079 32.524 109.778 32.4055 110.407 32.1608L110.262 31.788L110.117 31.4152C109.594 31.6185 108.996 31.724 108.318 31.724V32.124ZM110.262 31.788L110.407 32.1608C111.042 31.9137 111.604 31.5261 112.09 31.0049L111.798 30.732L111.505 30.4591C111.096 30.8979 110.633 31.2143 110.117 31.4152L110.262 31.788ZM111.798 30.732L111.496 30.9946L113.104 32.8426L113.406 32.58L113.708 32.3174L112.1 30.4694L111.798 30.732ZM113.406 32.58L113.102 32.3197C112.57 32.9407 111.895 33.4251 111.068 33.771L111.222 34.14L111.376 34.509C112.309 34.1189 113.09 33.5633 113.71 32.8403L113.406 32.58ZM111.222 34.14L111.071 33.7696C110.263 34.0985 109.324 34.268 108.246 34.268V34.668V35.068C109.408 35.068 110.452 34.8855 111.373 34.5104L111.222 34.14ZM119.48 38.844L119.588 38.459L119.584 38.458L119.48 38.844ZM116.72 37.5L116.376 37.2953L116.2 37.5906L116.466 37.809L116.72 37.5ZM118.064 35.244L118.319 34.936L117.959 34.6379L117.72 35.0393L118.064 35.244ZM120.176 36.348L120.302 35.9685L120.298 35.9671L120.176 36.348ZM125.888 35.796L125.608 35.5097L125.605 35.5132L125.888 35.796ZM126.872 30.612L126.473 30.5791L126.472 30.5955V30.612H126.872ZM127.112 27.708L127.51 27.7409L127.512 27.7179L127.511 27.6948L127.112 27.708ZM127.016 24.804H126.615L126.616 24.8172L127.016 24.804ZM127.016 21.684V21.284H126.616V21.684H127.016ZM129.872 21.684H130.272V21.284H129.872V21.684ZM128.096 37.668L127.825 37.3735L127.823 37.3754L128.096 37.668ZM119.264 33.156L119.073 33.5079L119.08 33.5114L119.264 33.156ZM116.936 30.972L116.593 31.1787L116.596 31.1829L116.936 30.972ZM116.936 24.468L116.596 24.257L116.593 24.2613L116.936 24.468ZM119.264 22.308L119.08 21.9525L119.078 21.9538L119.264 22.308ZM125.504 22.188L125.325 22.5458V22.5458L125.504 22.188ZM127.568 24.204L127.219 24.3998L127.221 24.4044L127.568 24.204ZM127.568 31.236L127.22 31.0382L127.219 31.0402L127.568 31.236ZM125.504 33.276L125.682 33.6338L125.688 33.6311L125.504 33.276ZM125.048 30.924L125.23 31.2799L125.238 31.2759L125.048 30.924ZM126.416 29.628L126.073 29.4222L126.071 29.4252L126.416 29.628ZM126.416 25.812L126.068 26.0106L126.075 26.0222L126.416 25.812ZM125.048 24.54L124.865 24.8959L124.873 24.8997L125.048 24.54ZM120.992 24.54L121.167 24.8997L121.17 24.8978L120.992 24.54ZM119.6 25.812L119.257 25.6062L119.255 25.6092L119.6 25.812ZM119.6 29.628L119.252 29.8266L119.259 29.8382L119.6 29.628ZM120.992 30.924L120.801 31.2761L120.813 31.2818L120.992 30.924ZM122.96 39.324V38.924C121.812 38.924 120.689 38.769 119.588 38.459L119.48 38.844L119.371 39.229C120.543 39.559 121.739 39.724 122.96 39.724V39.324ZM119.48 38.844L119.584 38.458C118.506 38.1653 117.641 37.7394 116.974 37.191L116.72 37.5L116.466 37.809C117.239 38.4446 118.213 38.9147 119.375 39.23L119.48 38.844ZM116.72 37.5L117.063 37.7047L118.407 35.4487L118.064 35.244L117.72 35.0393L116.376 37.2953L116.72 37.5ZM118.064 35.244L117.808 35.552C118.415 36.055 119.167 36.4447 120.053 36.7289L120.176 36.348L120.298 35.9671C119.488 35.7073 118.832 35.361 118.319 34.936L118.064 35.244ZM120.176 36.348L120.049 36.7275C120.952 37.0286 121.867 37.18 122.792 37.18V36.78V36.38C121.956 36.38 121.127 36.2434 120.302 35.9685L120.176 36.348ZM122.792 36.78V37.18C124.252 37.18 125.408 36.8409 126.17 36.0788L125.888 35.796L125.605 35.5132C125.055 36.0631 124.148 36.38 122.792 36.38V36.78ZM125.888 35.796L126.167 36.0823C126.927 35.3404 127.272 34.2505 127.272 32.892H126.872H126.472C126.472 34.1255 126.16 34.9716 125.608 35.5097L125.888 35.796ZM126.872 32.892H127.272V30.612H126.872H126.472V32.892H126.872ZM126.872 30.612L127.27 30.6449L127.51 27.7409L127.112 27.708L126.713 27.6751L126.473 30.5791L126.872 30.612ZM127.112 27.708L127.511 27.6948L127.415 24.7908L127.016 24.804L126.616 24.8172L126.712 27.7212L127.112 27.708ZM127.016 24.804H127.416V21.684H127.016H126.616V24.804H127.016ZM127.016 21.684V22.084H129.872V21.684V21.284H127.016V21.684ZM129.872 21.684H129.472V32.556H129.872H130.272V21.684H129.872ZM129.872 32.556H129.472C129.472 34.8145 128.896 36.3897 127.825 37.3735L128.096 37.668L128.366 37.9625C129.664 36.7703 130.272 34.9375 130.272 32.556H129.872ZM128.096 37.668L127.823 37.3754C126.737 38.3877 125.138 38.924 122.96 38.924V39.324V39.724C125.262 39.724 127.086 39.1563 128.368 37.9606L128.096 37.668ZM122.576 33.924V33.524C121.418 33.524 120.377 33.2807 119.447 32.8006L119.264 33.156L119.08 33.5114C120.134 34.0553 121.302 34.324 122.576 34.324V33.924ZM119.264 33.156L119.454 32.8042C118.538 32.3088 117.814 31.6289 117.275 30.7611L116.936 30.972L116.596 31.1829C117.209 32.1711 118.037 32.9472 119.073 33.5078L119.264 33.156ZM116.936 30.972L117.278 30.7653C116.761 29.9087 116.496 28.8944 116.496 27.708H116.096H115.696C115.696 29.0176 115.99 30.1793 116.593 31.1787L116.936 30.972ZM116.096 27.708H116.496C116.496 26.5387 116.761 25.5321 117.278 24.6747L116.936 24.468L116.593 24.2613C115.991 25.2599 115.696 26.4133 115.696 27.708H116.096ZM116.936 24.468L117.275 24.6789C117.813 23.8122 118.536 23.1414 119.449 22.6622L119.264 22.308L119.078 21.9538C118.039 22.4986 117.21 23.2678 116.596 24.2571L116.936 24.468ZM119.264 22.308L119.447 22.6634C120.377 22.1833 121.418 21.94 122.576 21.94V21.54V21.14C121.302 21.14 120.134 21.4087 119.08 21.9526L119.264 22.308ZM122.576 21.54V21.94C123.609 21.94 124.523 22.1449 125.325 22.5458L125.504 22.188L125.682 21.8302C124.756 21.3671 123.718 21.14 122.576 21.14V21.54ZM125.504 22.188L125.325 22.5458C126.111 22.939 126.743 23.5515 127.219 24.3998L127.568 24.204L127.916 24.0082C127.369 23.0325 126.624 22.301 125.682 21.8302L125.504 22.188ZM127.568 24.204L127.221 24.4044C127.704 25.2378 127.96 26.3306 127.96 27.708H128.36H128.76C128.76 26.2374 128.487 24.9942 127.914 24.0036L127.568 24.204ZM128.36 27.708H127.96C127.96 29.085 127.704 30.1873 127.22 31.0382L127.568 31.236L127.915 31.4338C128.487 30.4287 128.76 29.179 128.76 27.708H128.36ZM127.568 31.236L127.219 31.0402C126.742 31.8895 126.109 32.5115 125.319 32.9209L125.504 33.276L125.688 33.6311C126.626 33.1445 127.369 32.4065 127.916 31.4318L127.568 31.236ZM125.504 33.276L125.325 32.9182C124.523 33.3191 123.609 33.524 122.576 33.524V33.924V34.324C123.718 34.324 124.756 34.0969 125.682 33.6338L125.504 33.276ZM123.032 31.38V31.78C123.839 31.78 124.575 31.6164 125.23 31.2798L125.048 30.924L124.865 30.5682C124.336 30.8396 123.728 30.98 123.032 30.98V31.38ZM125.048 30.924L125.238 31.2759C125.89 30.9236 126.401 30.4419 126.76 29.8308L126.416 29.628L126.071 29.4252C125.79 29.9021 125.39 30.2844 124.857 30.5721L125.048 30.924ZM126.416 29.628L126.759 29.8338C127.136 29.2054 127.32 28.4928 127.32 27.708H126.92H126.52C126.52 28.3632 126.368 28.9306 126.073 29.4222L126.416 29.628ZM126.92 27.708H127.32C127.32 26.9234 127.136 26.2167 126.756 25.6018L126.416 25.812L126.075 26.0222C126.368 26.4953 126.52 27.0526 126.52 27.708H126.92ZM126.416 25.812L126.763 25.6135C126.402 24.9822 125.885 24.5027 125.223 24.1803L125.048 24.54L124.873 24.8997C125.394 25.1533 125.789 25.5218 126.068 26.0105L126.416 25.812ZM125.048 24.54L125.23 24.1842C124.575 23.8476 123.839 23.684 123.032 23.684V24.084V24.484C123.728 24.484 124.336 24.6244 124.865 24.8958L125.048 24.54ZM123.032 24.084V23.684C122.224 23.684 121.482 23.8476 120.813 24.1822L120.992 24.54L121.17 24.8978C121.717 24.6244 122.335 24.484 123.032 24.484V24.084ZM120.992 24.54L120.817 24.1803C120.155 24.5019 119.633 24.9791 119.257 25.6062L119.6 25.812L119.943 26.0178C120.238 25.5249 120.644 25.1541 121.167 24.8997L120.992 24.54ZM119.6 25.812L119.255 25.6092C118.894 26.2229 118.72 26.9269 118.72 27.708H119.12H119.52C119.52 27.0491 119.665 26.4891 119.944 26.0148L119.6 25.812ZM119.12 27.708H118.72C118.72 28.4893 118.894 29.1992 119.252 29.8265L119.6 29.628L119.947 29.4295C119.665 28.9368 119.52 28.3667 119.52 27.708H119.12ZM119.6 29.628L119.259 29.8382C119.634 30.4449 120.151 30.9244 120.801 31.2759L120.992 30.924L121.182 30.5721C120.648 30.2836 120.237 29.8991 119.94 29.4178L119.6 29.628ZM120.992 30.924L120.813 31.2818C121.482 31.6164 122.224 31.78 123.032 31.78V31.38V30.98C122.335 30.98 121.717 30.8396 121.17 30.5662L120.992 30.924ZM133.816 34.5H133.416V34.9H133.816V34.5ZM133.816 21.684V21.284H133.416V21.684H133.816ZM136.672 21.684H137.072V21.284H136.672V21.684ZM136.672 25.212L136.291 25.3358L137.072 25.212H136.672ZM136.336 24.18L135.97 24.0175L135.908 24.1578L135.955 24.3038L136.336 24.18ZM138.136 22.212L137.946 21.8598L137.943 21.8614L138.136 22.212ZM141.232 21.54H141.632V21.14H141.232V21.54ZM141.232 24.396L141.135 24.7841L141.632 24.9083V24.396H141.232ZM140.872 24.348L140.815 24.744L140.843 24.748H140.872V24.348ZM137.824 25.332L138.103 25.6182L138.106 25.6148L137.824 25.332ZM136.816 34.5V34.9H137.216V34.5H136.816ZM133.816 34.5H134.216V21.684H133.816H133.416V34.5H133.816ZM133.816 21.684V22.084H136.672V21.684V21.284H133.816V21.684ZM136.672 21.684H136.272V25.212H136.672H137.072V21.684H136.672ZM136.672 25.212L137.052 25.0882L136.716 24.0562L136.336 24.18L135.955 24.3038L136.291 25.3358L136.672 25.212ZM136.336 24.18L136.701 24.3425C137.05 23.5571 137.59 22.9678 138.328 22.5626L138.136 22.212L137.943 21.8614C137.049 22.3522 136.389 23.0749 135.97 24.0175L136.336 24.18ZM138.136 22.212L138.325 22.5642C139.084 22.1557 140.046 21.94 141.232 21.94V21.54V21.14C139.953 21.14 138.851 21.3723 137.946 21.8598L138.136 22.212ZM141.232 21.54H140.832V24.396H141.232H141.632V21.54H141.232ZM141.232 24.396L141.329 24.0079C141.174 23.9694 141.022 23.948 140.872 23.948V24.348V24.748C140.946 24.748 141.033 24.7586 141.135 24.7841L141.232 24.396ZM140.872 24.348L140.928 23.952C140.798 23.9334 140.667 23.924 140.536 23.924V24.324V24.724C140.629 24.724 140.722 24.7306 140.815 24.744L140.872 24.348ZM140.536 24.324V23.924C139.316 23.924 138.302 24.2878 137.541 25.0492L137.824 25.332L138.106 25.6148C138.689 25.0322 139.484 24.724 140.536 24.724V24.324ZM137.824 25.332L137.544 25.0458C136.769 25.8029 136.416 26.9079 136.416 28.284H136.816H137.216C137.216 27.0361 137.535 26.1731 138.103 25.6182L137.824 25.332ZM136.816 28.284H136.416V34.5H136.816H137.216V28.284H136.816ZM136.816 34.5V34.1H133.816V34.5V34.9H136.816V34.5ZM150.759 34.5H150.359V34.9H150.759V34.5ZM150.759 31.908H151.159V31.8485L151.141 31.7915L150.759 31.908ZM150.591 31.356H150.191V31.4155L150.208 31.4725L150.591 31.356ZM149.799 24.78L149.525 25.0716L149.529 25.076L149.799 24.78ZM145.263 24.372L145.141 23.9908L145.139 23.9917L145.263 24.372ZM143.511 25.308L143.158 25.4976L143.39 25.9287L143.767 25.6153L143.511 25.308ZM142.335 23.124L142.091 22.8067L141.821 23.0139L141.982 23.3136L142.335 23.124ZM144.783 21.948L144.887 22.3341L144.892 22.3329L144.783 21.948ZM152.055 22.884L151.789 23.183L151.794 23.1874L152.055 22.884ZM153.591 34.5V34.9H153.991V34.5H153.591ZM144.207 34.188L144.037 34.5505L144.044 34.5535L144.207 34.188ZM142.527 32.82L142.191 33.0378L142.198 33.0482L142.527 32.82ZM142.455 28.884L142.113 28.6754L142.109 28.6825L142.455 28.884ZM144.159 27.516L144.316 27.8837V27.8837L144.159 27.516ZM150.999 27.012H151.399V26.612H150.999V27.012ZM150.999 29.004V29.404H151.399V29.004H150.999ZM145.431 29.508L145.7 29.8041L145.707 29.7973L145.431 29.508ZM145.551 32.004L145.312 32.3254V32.3254L145.551 32.004ZM149.319 31.98L149.121 31.6321L149.117 31.6345L149.319 31.98ZM150.591 30.492L150.976 30.3841L150.653 29.2316L150.218 30.3466L150.591 30.492ZM151.095 32.292L151.468 32.4351L151.515 32.3115L151.48 32.1841L151.095 32.292ZM149.535 34.044L149.341 33.694L149.338 33.6958L149.535 34.044ZM150.759 34.5H151.159V31.908H150.759H150.359V34.5H150.759ZM150.759 31.908L151.141 31.7915L150.973 31.2395L150.591 31.356L150.208 31.4725L150.376 32.0245L150.759 31.908ZM150.591 31.356H150.991V26.82H150.591H150.191V31.356H150.591ZM150.591 26.82H150.991C150.991 25.8556 150.698 25.057 150.068 24.484L149.799 24.78L149.529 25.076C149.955 25.463 150.191 26.0244 150.191 26.82H150.591ZM149.799 24.78L150.072 24.4885C149.441 23.8957 148.524 23.636 147.399 23.636V24.036V24.436C148.417 24.436 149.1 24.6723 149.525 25.0715L149.799 24.78ZM147.399 24.036V23.636C146.636 23.636 145.883 23.7547 145.141 23.9908L145.263 24.372L145.384 24.7532C146.05 24.5413 146.721 24.436 147.399 24.436V24.036ZM145.263 24.372L145.139 23.9917C144.41 24.2289 143.779 24.5635 143.254 25.0007L143.511 25.308L143.767 25.6153C144.202 25.2525 144.739 24.9631 145.386 24.7523L145.263 24.372ZM143.511 25.308L143.863 25.1184L142.687 22.9344L142.335 23.124L141.982 23.3136L143.158 25.4976L143.511 25.308ZM142.335 23.124L142.578 23.4413C143.22 22.9489 143.987 22.5781 144.887 22.3341L144.783 21.948L144.678 21.5619C143.69 21.8299 142.825 22.2431 142.091 22.8067L142.335 23.124ZM144.783 21.948L144.892 22.3329C145.815 22.0712 146.77 21.94 147.759 21.94V21.54V21.14C146.699 21.14 145.67 21.2808 144.673 21.5631L144.783 21.948ZM147.759 21.54V21.94C149.554 21.94 150.878 22.373 151.789 23.183L152.055 22.884L152.32 22.585C151.215 21.603 149.676 21.14 147.759 21.14V21.54ZM152.055 22.884L151.794 23.1874C152.7 23.9659 153.191 25.2028 153.191 26.988H153.591H153.991C153.991 25.0612 153.457 23.5621 152.315 22.5806L152.055 22.884ZM153.591 26.988H153.191V34.5H153.591H153.991V26.988H153.591ZM153.591 34.5V34.1H150.759V34.5V34.9H153.591V34.5ZM146.727 34.668V34.268C145.811 34.268 145.028 34.1153 144.369 33.8225L144.207 34.188L144.044 34.5535C144.825 34.9007 145.723 35.068 146.727 35.068V34.668ZM144.207 34.188L144.376 33.8255C143.711 33.5154 143.21 33.1024 142.855 32.5918L142.527 32.82L142.198 33.0482C142.643 33.6896 143.262 34.1886 144.037 34.5505L144.207 34.188ZM142.527 32.82L142.862 32.6023C142.522 32.078 142.351 31.4902 142.351 30.828H141.951H141.551C141.551 31.6378 141.763 32.378 142.191 33.0377L142.527 32.82ZM141.951 30.828H142.351C142.351 30.173 142.503 29.5955 142.8 29.0855L142.455 28.884L142.109 28.6825C141.735 29.3245 141.551 30.043 141.551 30.828H141.951ZM142.455 28.884L142.796 29.0926C143.094 28.6041 143.588 28.1956 144.316 27.8837L144.159 27.516L144.001 27.1483C143.161 27.5084 142.519 28.0119 142.113 28.6754L142.455 28.884ZM144.159 27.516L144.316 27.8837C145.031 27.5771 146.011 27.412 147.279 27.412V27.012V26.612C145.954 26.612 144.854 26.7829 144.001 27.1483L144.159 27.516ZM147.279 27.012V27.412H150.999V27.012V26.612H147.279V27.012ZM150.999 27.012H150.599V29.004H150.999H151.399V27.012H150.999ZM150.999 29.004V28.604H147.495V29.004V29.404H150.999V29.004ZM147.495 29.004V28.604C146.963 28.604 146.501 28.6473 146.116 28.7414C145.733 28.835 145.399 28.9851 145.154 29.2187L145.431 29.508L145.707 29.7973C145.814 29.6949 146 29.593 146.305 29.5186C146.608 29.4447 147.002 29.404 147.495 29.404V29.004ZM145.431 29.508L145.161 29.212C144.725 29.6086 144.503 30.1165 144.503 30.708H144.903H145.303C145.303 30.3395 145.432 30.0474 145.7 29.804L145.431 29.508ZM144.903 30.708H144.503C144.503 31.377 144.777 31.9289 145.312 32.3254L145.551 32.004L145.789 31.6826C145.46 31.4391 145.303 31.127 145.303 30.708H144.903ZM145.551 32.004L145.312 32.3254C145.837 32.7142 146.532 32.884 147.351 32.884V32.484V32.084C146.633 32.084 146.128 31.9338 145.789 31.6826L145.551 32.004ZM147.351 32.484V32.884C148.15 32.884 148.877 32.7008 149.52 32.3255L149.319 31.98L149.117 31.6345C148.608 31.9312 148.023 32.084 147.351 32.084V32.484ZM149.319 31.98L149.516 32.3279C150.191 31.9448 150.675 31.3758 150.963 30.6374L150.591 30.492L150.218 30.3466C149.994 30.9202 149.63 31.3432 149.121 31.6321L149.319 31.98ZM150.591 30.492L150.205 30.5999L150.709 32.3999L151.095 32.292L151.48 32.1841L150.976 30.3841L150.591 30.492ZM151.095 32.292L150.721 32.1489C150.469 32.8067 150.016 33.3203 149.341 33.694L149.535 34.044L149.728 34.394C150.557 33.9357 151.144 33.2813 151.468 32.4351L151.095 32.292ZM149.535 34.044L149.338 33.6958C148.679 34.0681 147.816 34.268 146.727 34.268V34.668V35.068C147.909 35.068 148.918 34.8519 149.731 34.3922L149.535 34.044ZM157.441 34.5H157.041V34.9H157.441V34.5ZM157.441 21.684V21.284H157.041V21.684H157.441ZM160.297 21.684H160.697V21.284H160.297V21.684ZM160.297 25.092L159.939 25.2709L160.697 25.092H160.297ZM159.793 24.084L159.438 23.8997L159.344 24.0806L159.435 24.2629L159.793 24.084ZM161.665 22.188L161.48 21.833L161.478 21.8345L161.665 22.188ZM167.617 22.428L167.393 22.7599L167.396 22.7617L167.617 22.428ZM169.393 25.116L169.262 25.4939L169.952 25.7335L169.782 25.0226L169.393 25.116ZM168.217 24.708L167.85 24.549L167.678 24.9446L168.086 25.0859L168.217 24.708ZM170.281 22.404L170.486 22.747V22.747L170.281 22.404ZM176.329 22.14L176.147 22.4963L176.15 22.4978L176.329 22.14ZM178.201 23.988L177.848 24.1776L177.85 24.1805L178.201 23.988ZM178.873 34.5V34.9H179.273V34.5H178.873ZM175.873 34.5H175.473V34.9H175.873V34.5ZM175.129 24.996L175.428 24.7308V24.7308L175.129 24.996ZM171.241 24.588L171.045 24.2393L171.04 24.2421L171.241 24.588ZM170.065 25.86L169.709 25.677L169.705 25.6852L170.065 25.86ZM169.657 34.5V34.9H170.057V34.5H169.657ZM166.657 34.5H166.257V34.9H166.657V34.5ZM165.913 24.996L166.212 24.7308V24.7308L165.913 24.996ZM162.025 24.588L161.829 24.2393L161.824 24.2421L162.025 24.588ZM160.849 25.86L160.493 25.677L160.489 25.6852L160.849 25.86ZM160.441 34.5V34.9H160.841V34.5H160.441ZM157.441 34.5H157.841V21.684H157.441H157.041V34.5H157.441ZM157.441 21.684V22.084H160.297V21.684V21.284H157.441V21.684ZM160.297 21.684H159.897V25.092H160.297H160.697V21.684H160.297ZM160.297 25.092L160.654 24.9131L160.15 23.9051L159.793 24.084L159.435 24.2629L159.939 25.2709L160.297 25.092ZM159.793 24.084L160.148 24.2683C160.543 23.5073 161.109 22.9349 161.852 22.5415L161.665 22.188L161.478 21.8345C160.588 22.3051 159.907 22.9967 159.438 23.8997L159.793 24.084ZM161.665 22.188L161.849 22.543C162.617 22.1441 163.497 21.94 164.497 21.94V21.54V21.14C163.385 21.14 162.376 21.3679 161.48 21.833L161.665 22.188ZM164.497 21.54V21.94C165.628 21.94 166.588 22.218 167.393 22.7599L167.617 22.428L167.84 22.0961C166.885 21.454 165.765 21.14 164.497 21.14V21.54ZM167.617 22.428L167.396 22.7617C168.195 23.2895 168.736 24.0921 169.004 25.2093L169.393 25.116L169.782 25.0226C169.474 23.7399 168.83 22.7505 167.837 22.0943L167.617 22.428ZM169.393 25.116L169.524 24.7381L168.348 24.3301L168.217 24.708L168.086 25.0859L169.262 25.4939L169.393 25.116ZM168.217 24.708L168.584 24.867C168.964 23.9892 169.593 23.2832 170.486 22.747L170.281 22.404L170.075 22.061C169.049 22.6768 168.301 23.5068 167.85 24.549L168.217 24.708ZM170.281 22.404L170.486 22.747C171.377 22.2129 172.416 21.94 173.617 21.94V21.54V21.14C172.29 21.14 171.105 21.4431 170.075 22.061L170.281 22.404ZM173.617 21.54V21.94C174.588 21.94 175.428 22.1294 176.147 22.4963L176.329 22.14L176.51 21.7837C175.662 21.3506 174.694 21.14 173.617 21.14V21.54ZM176.329 22.14L176.15 22.4978C176.872 22.8588 177.437 23.4139 177.848 24.1776L178.201 23.988L178.553 23.7984C178.068 22.8981 177.386 22.2212 176.508 21.7822L176.329 22.14ZM178.201 23.988L177.85 24.1805C178.255 24.9189 178.473 25.9023 178.473 27.156H178.873H179.273C179.273 25.8177 179.042 24.6891 178.551 23.7955L178.201 23.988ZM178.873 27.156H178.473V34.5H178.873H179.273V27.156H178.873ZM178.873 34.5V34.1H175.873V34.5V34.9H178.873V34.5ZM175.873 34.5H176.273V27.54H175.873H175.473V34.5H175.873ZM175.873 27.54H176.273C176.273 26.3552 176.015 25.3938 175.428 24.7308L175.129 24.996L174.829 25.2612C175.234 25.7182 175.473 26.4528 175.473 27.54H175.873ZM175.129 24.996L175.428 24.7308C174.838 24.0651 174.005 23.756 172.993 23.756V24.156V24.556C173.836 24.556 174.427 24.8069 174.829 25.2612L175.129 24.996ZM172.993 24.156V23.756C172.276 23.756 171.623 23.9139 171.045 24.2394L171.241 24.588L171.437 24.9366C171.882 24.6861 172.397 24.556 172.993 24.556V24.156ZM171.241 24.588L171.04 24.2421C170.471 24.5722 170.028 25.056 169.709 25.6771L170.065 25.86L170.42 26.0429C170.677 25.544 171.018 25.1798 171.442 24.9339L171.241 24.588ZM170.065 25.86L169.705 25.6852C169.398 26.3166 169.257 27.0935 169.257 27.996H169.657H170.057C170.057 27.1705 170.187 26.5234 170.424 26.0348L170.065 25.86ZM169.657 27.996H169.257V34.5H169.657H170.057V27.996H169.657ZM169.657 34.5V34.1H166.657V34.5V34.9H169.657V34.5ZM166.657 34.5H167.057V27.54H166.657H166.257V34.5H166.657ZM166.657 27.54H167.057C167.057 26.3552 166.799 25.3938 166.212 24.7308L165.913 24.996L165.613 25.2612C166.018 25.7182 166.257 26.4528 166.257 27.54H166.657ZM165.913 24.996L166.212 24.7308C165.622 24.0651 164.789 23.756 163.777 23.756V24.156V24.556C164.62 24.556 165.211 24.8069 165.613 25.2612L165.913 24.996ZM163.777 24.156V23.756C163.06 23.756 162.407 23.9139 161.829 24.2394L162.025 24.588L162.221 24.9366C162.666 24.6861 163.181 24.556 163.777 24.556V24.156ZM162.025 24.588L161.824 24.2421C161.255 24.5722 160.812 25.056 160.493 25.6771L160.849 25.86L161.204 26.0429C161.461 25.544 161.802 25.1798 162.226 24.9339L162.025 24.588ZM160.849 25.86L160.489 25.6852C160.182 26.3166 160.041 27.0935 160.041 27.996H160.441H160.841C160.841 27.1705 160.971 26.5234 161.208 26.0348L160.849 25.86ZM160.441 27.996H160.041V34.5H160.441H160.841V27.996H160.441ZM160.441 34.5V34.1H157.441V34.5V34.9H160.441V34.5Z" fill="white" mask="url(#path-5-outside-1_329_804)"/>
</g>
</g>
<defs>
<filter id="filter0_d_329_804" x="0" y="0" width="206" height="60" filterUnits="userSpaceOnUse" color-interpolation-filters="sRGB">
<feFlood flood-opacity="0" result="BackgroundImageFix"/>
<feColorMatrix in="SourceAlpha" type="matrix" values="0 0 0 0 0 0 0 0 0 0 0 0 0 0 0 0 0 0 127 0" result="hardAlpha"/>
<feOffset dy="4"/>
<feGaussianBlur stdDeviation="2"/>
<feComposite in2="hardAlpha" operator="out"/>
<feColorMatrix type="matrix" values="0 0 0 0 0 0 0 0 0 0 0 0 0 0 0 0 0 0 0.25 0"/>
<feBlend mode="normal" in2="BackgroundImageFix" result="effect1_dropShadow_329_804"/>
<feBlend mode="normal" in="SourceGraphic" in2="effect1_dropShadow_329_804" result="shape"/>
</filter>
<filter id="filter1_d_329_804" x="60.958" y="16.292" width="122.314" height="31.4321" filterUnits="userSpaceOnUse" color-interpolation-filters="sRGB">
<feFlood flood-opacity="0" result="BackgroundImageFix"/>
<feColorMatrix in="SourceAlpha" type="matrix" values="0 0 0 0 0 0 0 0 0 0 0 0 0 0 0 0 0 0 127 0" result="hardAlpha"/>
<feOffset dy="4"/>
<feGaussianBlur stdDeviation="2"/>
<feComposite in2="hardAlpha" operator="out"/>
<feColorMatrix type="matrix" values="0 0 0 0 0 0 0 0 0 0 0 0 0 0 0 0 0 0 0.4 0"/>
<feBlend mode="normal" in2="BackgroundImageFix" result="effect1_dropShadow_329_804"/>
<feBlend mode="normal" in="SourceGraphic" in2="effect1_dropShadow_329_804" result="shape"/>
</filter>
<linearGradient id="paint0_linear_329_804" x1="103" y1="36.3358" x2="103" y2="-77.4731" gradientUnits="userSpaceOnUse">
<stop stop-color="white" stop-opacity="0"/>
<stop offset="1" stop-color="white" stop-opacity="0.15"/>
</linearGradient>
<linearGradient id="paint1_linear_329_804" x1="40" y1="11" x2="40" y2="40.7775" gradientUnits="userSpaceOnUse">
<stop stop-color="#2AABEE"/>
<stop offset="1" stop-color="#229ED9"/>
</linearGradient>
<linearGradient id="paint2_linear_329_804" x1="123" y1="11.5" x2="123" y2="40.5" gradientUnits="userSpaceOnUse">
<stop offset="0.329372" stop-color="white"/>
<stop offset="1" stop-color="#D0D0D0"/>
</linearGradient>
</defs>
</svg>
